HIERARCHY
ROOT Hips
{
	OFFSET 0.000000 71.427986 0.000000
	CHANNELS 6 Xposition Yposition Zposition Xrotation Yrotation Zrotation
	JOINT Pelvis
	{
		OFFSET 0.000000 0.000000 0.000000
		CHANNELS 3 Xrotation Yrotation Zrotation
		JOINT LeftUpLeg
		{
			OFFSET 6.797100 -2.508499 -1.318700
			CHANNELS 3 Xrotation Yrotation Zrotation
			JOINT LeftLeg
			{
				OFFSET 0.069008 -29.241863 0.690200
				CHANNELS 3 Xrotation Yrotation Zrotation
				JOINT LeftFoot
				{
					OFFSET -0.069008 -29.568123 -0.266800
					CHANNELS 3 Xrotation Yrotation Zrotation
					JOINT LeftToeBase
					{
						OFFSET 3.145500 -8.631000 16.059900
						CHANNELS 3 Xrotation Yrotation Zrotation
						End Site
						{
							OFFSET 0.000000 18.501587 0.000000
						}
					}
				}
			}
			JOINT Left_ShortSleeve
			{
				OFFSET 0.265923 -10.480953 1.153800
				CHANNELS 3 Xrotation Yrotation Zrotation
				End Site
				{
					OFFSET 1.725763 19.823879 0.000000
				}
			}
		}
		JOINT RightUpLeg
		{
			OFFSET -6.797100 -2.508499 -1.318700
			CHANNELS 3 Xrotation Yrotation Zrotation
			JOINT RightLeg
			{
				OFFSET -0.082453 -29.241932 0.688000
				CHANNELS 3 Xrotation Yrotation Zrotation
				JOINT RightFoot
				{
					OFFSET 0.082453 -29.568058 -0.264600
					CHANNELS 3 Xrotation Yrotation Zrotation
					JOINT RightToeBase
					{
						OFFSET -3.115300 -8.682800 16.113400
						CHANNELS 3 Xrotation Yrotation Zrotation
						End Site
						{
							OFFSET 0.000000 18.567114 0.000000
						}
					}
				}
			}
			JOINT Right_ShortSleeve
			{
				OFFSET -0.265923 -10.480953 1.153800
				CHANNELS 3 Xrotation Yrotation Zrotation
				End Site
				{
					OFFSET -1.725766 19.823910 0.000000
				}
			}
		}
	}
	JOINT Spine
	{
		OFFSET 0.000000 13.368103 0.470500
		CHANNELS 3 Xrotation Yrotation Zrotation
		JOINT Spine1
		{
			OFFSET 0.147000 13.837402 0.538800
			CHANNELS 3 Xrotation Yrotation Zrotation
			JOINT Spine2
			{
				OFFSET 0.168000 16.242897 -1.435500
				CHANNELS 3 Xrotation Yrotation Zrotation
				JOINT Neck
				{
					OFFSET 0.217200 18.631500 -1.679100
					CHANNELS 3 Xrotation Yrotation Zrotation
					JOINT Head
					{
						OFFSET 0.000000 6.599396 1.385900
						CHANNELS 3 Xrotation Yrotation Zrotation
						JOINT Hat
						{
							OFFSET -0.532200 27.220596 -10.096100
							CHANNELS 3 Xrotation Yrotation Zrotation
							End Site
							{
								OFFSET 0.000000 22.029861 0.000000
							}
						}
						JOINT HairD
						{
							OFFSET -10.777400 17.437393 -1.325900
							CHANNELS 3 Xrotation Yrotation Zrotation
							JOINT HairD1
							{
								OFFSET -3.290299 -11.051193 1.062200
								CHANNELS 3 Xrotation Yrotation Zrotation
								End Site
								{
									OFFSET 0.000000 11.579437 0.000000
								}
							}
						}
						JOINT HairB
						{
							OFFSET -10.777400 17.437393 1.467900
							CHANNELS 3 Xrotation Yrotation Zrotation
							JOINT HairB1
							{
								OFFSET -1.561200 -12.956299 3.590200
								CHANNELS 3 Xrotation Yrotation Zrotation
								End Site
								{
									OFFSET 0.000000 13.534866 0.000000
								}
							}
						}
						JOINT HairA
						{
							OFFSET 9.713100 17.437393 1.467900
							CHANNELS 3 Xrotation Yrotation Zrotation
							JOINT HairA1
							{
								OFFSET 1.561200 -12.956299 3.590200
								CHANNELS 3 Xrotation Yrotation Zrotation
								End Site
								{
									OFFSET 0.000000 13.534866 0.000000
								}
							}
						}
						JOINT HairC
						{
							OFFSET 9.713100 17.437393 -1.325900
							CHANNELS 3 Xrotation Yrotation Zrotation
							JOINT HairC1
							{
								OFFSET 3.290300 -11.051193 1.062200
								CHANNELS 3 Xrotation Yrotation Zrotation
								End Site
								{
									OFFSET 0.000000 11.579437 0.000000
								}
							}
						}
					}
				}
				JOINT LeftShoulder
				{
					OFFSET 5.101800 15.108002 -2.763700
					CHANNELS 3 Xrotation Yrotation Zrotation
					JOINT LeftArm
					{
						OFFSET 9.825497 2.506317 -1.597400
						CHANNELS 3 Xrotation Yrotation Zrotation
						JOINT LeftForeArm
						{
							OFFSET 21.966244 0.000000 0.000000
							CHANNELS 3 Xrotation Yrotation Zrotation
							JOINT LeftHand
							{
								OFFSET 33.879036 0.000000 0.000000
								CHANNELS 3 Xrotation Yrotation Zrotation
								JOINT LeftHandThumb1
								{
									OFFSET 6.715286 -2.359680 3.363841
									CHANNELS 3 Xrotation Yrotation Zrotation
									JOINT LeftHandThumb2
									{
										OFFSET 2.507072 -1.447464 1.447461
										CHANNELS 3 Xrotation Yrotation Zrotation
										JOINT LeftHandThumb3
										{
											OFFSET 2.898338 -1.673355 1.673357
											CHANNELS 3 Xrotation Yrotation Zrotation
											End Site
											{
												OFFSET -0.295959 3.727692 -0.131651
											}
										}
									}
								}
								JOINT LeftHandIndex1
								{
									OFFSET 14.190811 -0.254547 3.840278
									CHANNELS 3 Xrotation Yrotation Zrotation
									JOINT LeftHandIndex2
									{
										OFFSET 3.551727 0.000000 -0.000000
										CHANNELS 3 Xrotation Yrotation Zrotation
										JOINT LeftHandIndex3
										{
											OFFSET 2.894196 0.000000 0.000000
											CHANNELS 3 Xrotation Yrotation Zrotation
											End Site
											{
												OFFSET -1.000603 2.690872 0.366626
											}
										}
									}
								}
								JOINT LeftHandMiddle1
								{
									OFFSET 13.776489 0.000000 0.000000
									CHANNELS 3 Xrotation Yrotation Zrotation
									JOINT LeftHandMiddle2
									{
										OFFSET 3.438232 0.000000 0.000000
										CHANNELS 3 Xrotation Yrotation Zrotation
										JOINT LeftHandMiddle3
										{
											OFFSET 3.691551 0.000000 0.000000
											CHANNELS 3 Xrotation Yrotation Zrotation
											End Site
											{
												OFFSET -1.082298 3.499527 0.457670
											}
										}
									}
								}
								JOINT LeftHandRing1
								{
									OFFSET 13.966164 -0.268127 -3.067488
									CHANNELS 3 Xrotation Yrotation Zrotation
									JOINT LeftHandRing2
									{
										OFFSET 3.162567 0.000000 0.000000
										CHANNELS 3 Xrotation Yrotation Zrotation
										JOINT LeftHandRing3
										{
											OFFSET 3.324348 0.000000 0.000000
											CHANNELS 3 Xrotation Yrotation Zrotation
											End Site
											{
												OFFSET -0.861900 3.184998 0.405154
											}
										}
									}
								}
								JOINT LeftHandPinky1
								{
									OFFSET 13.131393 -0.168503 -5.746925
									CHANNELS 3 Xrotation Yrotation Zrotation
									JOINT LeftHandPinky2
									{
										OFFSET 2.849182 0.000000 0.000000
										CHANNELS 3 Xrotation Yrotation Zrotation
										JOINT LeftHandPinky3
										{
											OFFSET 2.805038 0.000000 0.000000
											CHANNELS 3 Xrotation Yrotation Zrotation
											End Site
											{
												OFFSET -0.882500 2.642609 0.325652
											}
										}
									}
								}
							}
							JOINT Left_Sleeve
							{
								OFFSET 6.592125 -0.646545 0.805568
								CHANNELS 3 Xrotation Yrotation Zrotation
								End Site
								{
									OFFSET -0.000179 20.275787 -0.000000
								}
							}
						}
					}
				}
				JOINT RightShoulder
				{
					OFFSET -5.731700 15.108002 -2.763700
					CHANNELS 3 Xrotation Yrotation Zrotation
					JOINT RightArm
					{
						OFFSET -9.825497 2.506317 -1.597400
						CHANNELS 3 Xrotation Yrotation Zrotation
						JOINT RightForeArm
						{
							OFFSET -21.966242 0.000000 0.000000
							CHANNELS 3 Xrotation Yrotation Zrotation
							JOINT RightHand
							{
								OFFSET -33.879032 0.000000 0.000000
								CHANNELS 3 Xrotation Yrotation Zrotation
								JOINT RightHandThumb1
								{
									OFFSET -6.715286 -2.359680 3.363841
									CHANNELS 3 Xrotation Yrotation Zrotation
									JOINT RightHandThumb2
									{
										OFFSET -2.507072 -1.447464 1.447461
										CHANNELS 3 Xrotation Yrotation Zrotation
										JOINT RightHandThumb3
										{
											OFFSET -2.898338 -1.673355 1.673357
											CHANNELS 3 Xrotation Yrotation Zrotation
											End Site
											{
												OFFSET 0.295959 3.727692 -0.131651
											}
										}
									}
								}
								JOINT RightHandIndex1
								{
									OFFSET -14.190811 -0.254547 3.840278
									CHANNELS 3 Xrotation Yrotation Zrotation
									JOINT RightHandIndex2
									{
										OFFSET -3.551727 0.000000 -0.000000
										CHANNELS 3 Xrotation Yrotation Zrotation
										JOINT RightHandIndex3
										{
											OFFSET -2.894196 0.000000 0.000000
											CHANNELS 3 Xrotation Yrotation Zrotation
											End Site
											{
												OFFSET 1.000603 2.690872 0.366626
											}
										}
									}
								}
								JOINT RightHandMiddle1
								{
									OFFSET -13.776489 0.000000 0.000000
									CHANNELS 3 Xrotation Yrotation Zrotation
									JOINT RightHandMiddle2
									{
										OFFSET -3.438232 0.000000 0.000000
										CHANNELS 3 Xrotation Yrotation Zrotation
										JOINT RightHandMiddle3
										{
											OFFSET -3.691551 0.000000 0.000000
											CHANNELS 3 Xrotation Yrotation Zrotation
											End Site
											{
												OFFSET 1.082298 3.499527 0.457670
											}
										}
									}
								}
								JOINT RightHandRing1
								{
									OFFSET -13.966164 -0.268127 -3.067488
									CHANNELS 3 Xrotation Yrotation Zrotation
									JOINT RightHandRing2
									{
										OFFSET -3.162567 0.000000 0.000000
										CHANNELS 3 Xrotation Yrotation Zrotation
										JOINT RightHandRing3
										{
											OFFSET -3.324348 0.000000 0.000000
											CHANNELS 3 Xrotation Yrotation Zrotation
											End Site
											{
												OFFSET 0.861900 3.184998 0.405154
											}
										}
									}
								}
								JOINT RightHandPinky1
								{
									OFFSET -13.131393 -0.168503 -5.746925
									CHANNELS 3 Xrotation Yrotation Zrotation
									JOINT RightHandPinky2
									{
										OFFSET -2.849182 0.000000 0.000000
										CHANNELS 3 Xrotation Yrotation Zrotation
										JOINT RightHandPinky3
										{
											OFFSET -2.805038 0.000000 0.000000
											CHANNELS 3 Xrotation Yrotation Zrotation
											End Site
											{
												OFFSET 0.882500 2.642609 0.325652
											}
										}
									}
								}
							}
							JOINT Right_Sleeve
							{
								OFFSET -6.592125 -0.646545 0.805568
								CHANNELS 3 Xrotation Yrotation Zrotation
								End Site
								{
									OFFSET 0.000179 20.275787 -0.000000
								}
							}
						}
					}
				}
				JOINT Bind_Right_JacketString
				{
					OFFSET -3.534800 11.969597 7.200700
					CHANNELS 3 Xrotation Yrotation Zrotation
					JOINT Bind_Right_JacketString1
					{
						OFFSET -0.319900 -6.102600 2.794100
						CHANNELS 3 Xrotation Yrotation Zrotation
						End Site
						{
							OFFSET 0.000000 6.719452 0.000000
						}
					}
				}
				JOINT Bind_Left_JacketString
				{
					OFFSET 2.904800 11.969597 7.200700
					CHANNELS 3 Xrotation Yrotation Zrotation
					JOINT Bind_Left_JacketString1
					{
						OFFSET 0.364800 -5.904503 3.186800
						CHANNELS 3 Xrotation Yrotation Zrotation
						End Site
						{
							OFFSET 0.000000 6.719513 0.000000
						}
					}
				}
				JOINT HairE
				{
					OFFSET 5.915200 17.612701 -11.592200
					CHANNELS 3 Xrotation Yrotation Zrotation
					JOINT HairE1
					{
						OFFSET 0.289200 -7.171898 -1.284500
						CHANNELS 3 Xrotation Yrotation Zrotation
						End Site
						{
							OFFSET 0.000000 7.291756 0.000000
						}
					}
				}
				JOINT HairF
				{
					OFFSET -0.864800 17.612701 -11.592200
					CHANNELS 3 Xrotation Yrotation Zrotation
					JOINT HairF1
					{
						OFFSET 0.000000 -14.087097 -2.127501
						CHANNELS 3 Xrotation Yrotation Zrotation
						End Site
						{
							OFFSET 0.000000 14.246841 0.000000
						}
					}
				}
				JOINT HairG
				{
					OFFSET -8.087700 17.612701 -11.592200
					CHANNELS 3 Xrotation Yrotation Zrotation
					JOINT HairG1
					{
						OFFSET -0.293600 -6.081398 -0.910100
						CHANNELS 3 Xrotation Yrotation Zrotation
						End Site
						{
							OFFSET 0.000000 6.156120 0.000000
						}
					}
				}
			}
		}
	}
	JOINT Pouch
	{
		OFFSET 0.000000 4.394501 10.847300
		CHANNELS 3 Xrotation Yrotation Zrotation
		End Site
		{
			OFFSET 0.000000 21.880577 0.000000
		}
	}
	JOINT Bag
	{
		OFFSET -13.229000 4.813004 -0.593300
		CHANNELS 3 Xrotation Yrotation Zrotation
		End Site
		{
			OFFSET 0.000000 21.880577 0.000000
		}
	}
	JOINT OccupyGuyFacialAnim_Joint
	{
		OFFSET 1.000000 -70.206398 -1.655000
		CHANNELS 3 Xrotation Yrotation Zrotation
		End Site
		{
			OFFSET 0.000000 21.880577 0.000000
		}
	}
}
MOTION
Frames: 4
Frame Time: 0.033333
-0.589293 72.825821 0.818172 -6.268836 38.025699 0.330496 -0.000001 -0.000001 0.000000 -23.333630 10.079090 14.161491 35.304408 4.316132 0.244589 12.336901 -1.039135 -5.178634 0.000002 0.000002 -0.000001 -0.000001 0.000000 -0.000000 -8.756860 6.403801 10.124486 35.155397 -1.671084 -0.231224 -1.214548 -2.806230 -3.196713 0.000001 0.000002 -0.000001 0.000001 -0.000001 0.000001 3.555272 1.918656 1.062191 -3.677352 1.644529 2.853749 -3.691751 1.672654 2.768706 4.792863 -6.735076 0.345751 1.818071 -6.152496 -2.652950 0.000000 -0.000000 0.000000 0.000000 -0.000000 0.000000 0.000000 -0.000000 0.000000 0.000000 -0.000000 -0.000000 -0.000000 0.000002 0.000000 0.000000 -0.000000 -0.000000 -0.000000 0.000002 0.000000 0.000000 -0.000000 0.000000 0.000000 -0.000000 0.000000 3.735340 -3.599953 -0.127607 5.393716 -2.906713 -81.577519 -0.285569 -19.951893 -0.211201 -2.737507 1.732576 8.378568 10.756254 -0.276887 15.889025 -0.891386 26.406620 -5.959727 0.000004 0.000001 0.000001 1.897252 11.316893 -8.003686 -1.773739 1.902940 -17.263499 -0.000000 0.000000 -0.000002 -1.035656 13.196794 -13.669665 0.061390 4.077075 -24.946412 0.000000 0.000001 -0.000001 -1.794448 19.783329 -13.552252 3.108160 3.345974 -31.125206 0.000000 0.000001 -0.000002 -1.314310 22.162434 -26.936781 8.536341 2.186427 -33.706099 0.000003 -0.000002 0.000003 -0.000000 -0.000000 0.000002 -0.160238 4.058480 0.670319 7.706413 7.346326 75.460565 -0.625910 18.366725 0.299101 -2.659590 -1.851419 8.332626 15.788730 -2.800693 -17.233906 -2.075436 -31.105952 7.336148 -0.000001 0.000001 0.000004 1.357728 5.355269 7.164860 -2.180531 -2.422687 18.263801 0.000001 0.000000 -0.000001 -2.789766 -0.557316 8.618003 0.148694 -5.059029 25.467031 0.000004 0.000001 -0.000002 -6.651946 -8.253865 -0.024549 3.969811 -4.100572 32.510307 0.000003 -0.000004 -0.000005 -9.284266 -13.614279 4.811593 10.644964 -2.890170 33.324148 0.000002 -0.000001 -0.000001 0.000002 0.000001 0.000001 -0.000000 0.000000 0.000000 -0.000001 0.000000 -0.000000 -0.000000 0.000000 0.000000 -0.000000 0.000000 0.000000 -0.000000 0.000000 0.000000 -0.000001 0.000000 0.000000 -0.000000 0.000000 0.000000 -0.000000 0.000000 0.000000 -0.000000 0.000000 0.000000 -0.000001 0.000000 0.000000 -0.000001 -0.000001 0.000000 -0.000001 -0.000001 0.000000 -0.000001 -0.000001 0.000000 
-0.614585 72.820831 0.834717 -6.273528 38.109133 0.352706 -0.000000 -0.000001 0.000000 -23.323424 9.943600 14.116768 35.302348 4.342298 0.249028 12.366175 -1.026325 -5.227957 -0.000000 -0.000003 0.000001 0.000000 0.000001 -0.000000 -8.771577 6.392934 10.143374 35.179408 -1.765929 -0.217275 -1.228666 -2.796098 -3.209081 -0.000000 -0.000001 0.000000 -0.000000 -0.000001 -0.000000 3.613422 1.916942 1.086179 -3.716218 1.639948 2.848566 -3.730231 1.668183 2.763678 4.806533 -6.833112 0.319213 1.823400 -6.255224 -2.655199 0.000000 0.000000 -0.000000 0.000000 0.000000 -0.000000 0.000000 0.000000 0.000000 0.000000 0.000000 0.000000 0.000000 0.000002 0.000000 0.000000 0.000000 0.000000 0.000000 0.000002 0.000000 0.000000 0.000000 -0.000000 0.000000 0.000000 -0.000000 3.737087 -3.637074 -0.099780 5.418180 -2.907904 -81.584909 -0.289014 -20.004210 -0.210882 -2.736200 1.736885 8.340451 10.756258 -0.276892 15.889026 -0.891389 26.406614 -5.959735 -0.000007 -0.000001 -0.000001 1.904363 11.267958 -8.062940 -1.773326 1.903159 -17.276228 0.000002 0.000003 -0.000001 -1.022751 13.212526 -13.720792 0.062198 4.077168 -24.960250 -0.000000 0.000003 -0.000001 -1.774210 19.844191 -13.598208 3.108719 3.345331 -31.137787 0.000002 0.000002 0.000000 -1.282395 22.267279 -26.968220 8.536666 2.185394 -33.715043 0.000003 -0.000001 0.000003 -0.000000 -0.000000 0.000001 -0.162078 4.042390 0.672032 7.730458 7.320187 75.441468 -0.582950 18.348772 0.284711 -2.655886 -1.843905 8.301065 15.788725 -2.800692 -17.233906 -2.075429 -31.105952 7.336147 -0.000002 0.000000 0.000002 1.339352 5.528928 7.449960 -2.177040 -2.425815 18.345514 -0.000000 0.000000 0.000004 -2.795806 -0.446249 8.824641 0.153585 -5.058734 25.522346 0.000001 0.000000 -0.000001 -6.625033 -8.164748 0.116957 3.973433 -4.097084 32.560714 -0.000001 -0.000001 -0.000003 -9.251844 -13.532620 4.867224 10.645974 -2.886254 33.345031 0.000002 0.000002 -0.000006 -0.000004 -0.000002 0.000001 -0.000000 0.000002 -0.000000 -0.000001 0.000000 -0.000000 -0.000000 0.000002 0.000000 -0.000000 0.000002 0.000000 -0.000000 0.000002 -0.000000 -0.000001 0.000000 -0.000000 -0.000000 0.000002 0.000000 -0.000000 0.000002 0.000000 -0.000000 0.000002 -0.000000 -0.000001 0.000000 -0.000000 -0.000000 -0.000001 0.000000 -0.000000 -0.000001 0.000000 -0.000000 -0.000001 0.000000 
-0.637806 72.817497 0.850136 -6.265006 38.196682 0.369463 0.000000 0.000001 -0.000000 -23.223885 9.429921 13.913416 35.281735 4.737356 0.282335 12.417412 -1.016973 -5.418886 0.000001 -0.000002 -0.000000 0.000001 0.000000 -0.000002 -8.789750 6.374326 10.152672 35.194066 -1.845481 -0.201867 -1.239809 -2.791709 -3.222446 -0.000000 0.000002 -0.000000 0.000001 -0.000001 -0.000000 3.654920 1.920956 1.124744 -3.752158 1.635348 2.839719 -3.765517 1.663542 2.754208 4.796535 -6.926313 0.297046 1.839436 -6.355649 -2.629559 -0.000000 0.000002 0.000000 -0.000000 0.000002 0.000000 -0.000000 0.000002 0.000000 -0.000000 0.000002 0.000000 0.000000 0.000002 0.000000 -0.000000 0.000002 0.000000 0.000000 0.000002 0.000000 -0.000000 0.000002 0.000000 -0.000000 0.000002 0.000000 3.731938 -3.613575 -0.128709 5.445885 -2.872301 -81.541831 -0.284864 -20.071694 -0.204393 -2.737441 1.783317 8.386680 10.756254 -0.276892 15.889028 -0.891390 26.406616 -5.959731 -0.000003 -0.000000 -0.000000 1.908044 11.203012 -8.112354 -1.772993 1.903357 -17.286521 0.000003 0.000002 -0.000003 -1.014396 13.212513 -13.757944 0.062818 4.077198 -24.970135 -0.000001 0.000000 -0.000001 -1.762018 19.888739 -13.622673 3.109069 3.344790 -31.143504 -0.000001 0.000000 -0.000001 -1.262094 22.356340 -26.969533 8.536794 2.185017 -33.715453 0.000001 0.000001 -0.000001 0.000003 0.000000 0.000001 -0.163911 3.988434 0.690684 7.751209 7.286694 75.418853 -0.426990 18.333430 0.234717 -2.653201 -1.839099 8.277689 15.788727 -2.800691 -17.233909 -2.075428 -31.105948 7.336150 0.000001 -0.000001 0.000001 1.323203 5.674890 7.731071 -2.173669 -2.428924 18.425878 0.000001 -0.000000 -0.000002 -2.799182 -0.355265 9.033247 0.158505 -5.058419 25.578481 0.000004 -0.000003 0.000001 -6.598510 -8.092309 0.268262 3.977014 -4.093679 32.610919 0.000001 0.000000 -0.000002 -9.218874 -13.464307 4.943455 10.647037 -2.882266 33.366372 -0.000001 0.000001 0.000001 -0.000002 -0.000000 -0.000001 -0.000001 -0.000001 -0.000001 -0.000000 0.000000 -0.000000 -0.000001 -0.000001 -0.000000 -0.000001 -0.000001 -0.000000 -0.000001 -0.000001 -0.000001 -0.000000 0.000000 -0.000000 -0.000001 -0.000001 -0.000000 -0.000001 -0.000001 -0.000000 -0.000001 -0.000001 -0.000001 -0.000000 0.000000 -0.000000 0.000000 0.000001 -0.000000 0.000000 0.000001 -0.000000 0.000000 0.000001 -0.000000 
-0.657584 72.813492 0.869004 -6.262002 38.298018 0.397793 -0.000000 0.000002 -0.000000 -23.241302 9.401101 13.903114 35.272108 4.639506 0.263709 12.448637 -0.994096 -5.415095 0.000001 0.000000 0.000000 0.000000 -0.000003 -0.000002 -8.703051 5.804038 9.947966 35.215475 -1.355137 -0.138671 -1.275708 -2.794236 -3.441612 -0.000000 0.000000 -0.000000 -0.000002 0.000002 -0.000000 3.691418 1.928775 1.168900 -3.775995 1.632812 2.821490 -3.788621 1.660885 2.735566 4.740938 -7.027643 0.270032 1.865744 -6.463299 -2.598747 -0.000000 0.000001 -0.000000 -0.000000 0.000001 -0.000000 -0.000000 0.000001 0.000000 -0.000000 0.000001 0.000000 -0.000000 0.000001 0.000000 -0.000000 0.000001 0.000000 -0.000000 0.000001 0.000000 -0.000000 0.000001 -0.000000 -0.000000 0.000001 -0.000000 3.733016 -3.563453 -0.130566 5.447614 -2.800248 -81.527385 -0.244344 -20.129411 -0.181382 -2.739352 1.864747 8.457064 10.756256 -0.276889 15.889030 -0.891384 26.406618 -5.959732 0.000001 -0.000000 0.000001 1.908209 11.121613 -8.151602 -1.772671 1.903508 -17.294367 0.000000 0.000001 -0.000002 -1.012138 13.196184 -13.780201 0.063200 4.077217 -24.975140 0.000000 0.000001 -0.000001 -1.758449 19.916369 -13.624803 3.109209 3.344403 -31.143928 0.000002 0.000001 0.000000 -1.253981 22.429033 -26.939552 8.536656 2.185309 -33.709077 -0.000000 0.000001 -0.000001 0.000000 0.000000 -0.000002 -0.164910 3.949395 0.705266 7.778944 7.246618 75.414694 -0.338011 18.319240 0.206522 -2.652904 -1.835869 8.272589 15.788728 -2.800693 -17.233908 -2.075429 -31.105948 7.336151 0.000001 -0.000002 -0.000000 1.309972 5.791991 8.007822 -2.170304 -2.431969 18.504781 -0.000003 0.000005 0.000001 -2.800856 -0.285227 9.243648 0.163534 -5.058053 25.635433 0.000001 -0.000003 0.000000 -6.572356 -8.037351 0.429578 3.980565 -4.090199 32.660991 0.000003 -0.000000 -0.000002 -9.185450 -13.409953 5.040897 10.648086 -2.878192 33.388010 0.000001 0.000002 0.000001 -0.000002 0.000002 -0.000000 -0.000001 -0.000001 -0.000001 -0.000001 -0.000003 -0.000001 -0.000001 -0.000001 -0.000000 -0.000001 -0.000001 -0.000000 -0.000001 -0.000001 -0.000001 -0.000001 -0.000003 -0.000000 -0.000001 -0.000001 -0.000000 -0.000001 -0.000001 -0.000000 -0.000001 -0.000001 -0.000001 -0.000001 -0.000003 -0.000000 -0.000000 0.000002 -0.000000 -0.000000 0.000002 -0.000000 -0.000000 0.000002 -0.000000 
